<mxfile host="app.diagrams.net" modified="2024-02-04T18:06:11.939Z" agent="Mozilla/5.0 (Windows NT 10.0; Win64; x64; rv:122.0) Gecko/20100101 Firefox/122.0" etag="kcfdRODAKE48u-NbukgR" version="23.1.1" type="device">
  <diagram id="mV9nvlgZ1SqP-orXN22f" name="Page-1">
    <mxGraphModel dx="2901" dy="2311" grid="1" gridSize="10" guides="1" tooltips="1" connect="1" arrows="1" fold="1" page="1" pageScale="1" pageWidth="827" pageHeight="1169" math="0" shadow="0">
      <root>
        <mxCell id="0" />
        <mxCell id="1" parent="0" />
        <mxCell id="259nfsBWnG1jqOeQEczo-21" style="edgeStyle=orthogonalEdgeStyle;rounded=0;orthogonalLoop=1;jettySize=auto;html=1;entryX=0;entryY=0.5;entryDx=0;entryDy=0;" parent="1" source="259nfsBWnG1jqOeQEczo-1" target="259nfsBWnG1jqOeQEczo-18" edge="1">
          <mxGeometry relative="1" as="geometry" />
        </mxCell>
        <mxCell id="259nfsBWnG1jqOeQEczo-22" style="edgeStyle=orthogonalEdgeStyle;rounded=0;orthogonalLoop=1;jettySize=auto;html=1;entryX=0;entryY=0.5;entryDx=0;entryDy=0;" parent="1" source="259nfsBWnG1jqOeQEczo-1" target="259nfsBWnG1jqOeQEczo-17" edge="1">
          <mxGeometry relative="1" as="geometry" />
        </mxCell>
        <mxCell id="259nfsBWnG1jqOeQEczo-1" value="&lt;div&gt;Resource&lt;/div&gt;&lt;div&gt;Parser&lt;br&gt;&lt;/div&gt;" style="whiteSpace=wrap;html=1;aspect=fixed;" parent="1" vertex="1">
          <mxGeometry x="80" y="430" width="80" height="80" as="geometry" />
        </mxCell>
        <mxCell id="259nfsBWnG1jqOeQEczo-7" style="edgeStyle=orthogonalEdgeStyle;rounded=0;orthogonalLoop=1;jettySize=auto;html=1;entryX=0.5;entryY=0;entryDx=0;entryDy=0;" parent="1" source="259nfsBWnG1jqOeQEczo-2" target="259nfsBWnG1jqOeQEczo-1" edge="1">
          <mxGeometry relative="1" as="geometry" />
        </mxCell>
        <mxCell id="259nfsBWnG1jqOeQEczo-2" value="Engine" style="whiteSpace=wrap;html=1;aspect=fixed;" parent="1" vertex="1">
          <mxGeometry x="80" y="300" width="80" height="80" as="geometry" />
        </mxCell>
        <mxCell id="259nfsBWnG1jqOeQEczo-5" style="edgeStyle=orthogonalEdgeStyle;rounded=0;orthogonalLoop=1;jettySize=auto;html=1;entryX=0.5;entryY=0;entryDx=0;entryDy=0;" parent="1" source="259nfsBWnG1jqOeQEczo-3" target="259nfsBWnG1jqOeQEczo-2" edge="1">
          <mxGeometry relative="1" as="geometry" />
        </mxCell>
        <mxCell id="259nfsBWnG1jqOeQEczo-3" value="CSV" style="rounded=0;whiteSpace=wrap;html=1;" parent="1" vertex="1">
          <mxGeometry x="60" y="210" width="120" height="60" as="geometry" />
        </mxCell>
        <mxCell id="259nfsBWnG1jqOeQEczo-6" style="edgeStyle=orthogonalEdgeStyle;rounded=0;orthogonalLoop=1;jettySize=auto;html=1;entryX=1;entryY=0.5;entryDx=0;entryDy=0;exitX=0.5;exitY=1;exitDx=0;exitDy=0;" parent="1" source="259nfsBWnG1jqOeQEczo-4" target="259nfsBWnG1jqOeQEczo-2" edge="1">
          <mxGeometry relative="1" as="geometry">
            <Array as="points">
              <mxPoint x="250" y="340" />
            </Array>
          </mxGeometry>
        </mxCell>
        <mxCell id="259nfsBWnG1jqOeQEczo-4" value="JSON" style="rounded=0;whiteSpace=wrap;html=1;" parent="1" vertex="1">
          <mxGeometry x="190" y="210" width="120" height="60" as="geometry" />
        </mxCell>
        <mxCell id="259nfsBWnG1jqOeQEczo-10" style="edgeStyle=orthogonalEdgeStyle;rounded=0;orthogonalLoop=1;jettySize=auto;html=1;entryX=0.5;entryY=0;entryDx=0;entryDy=0;" parent="1" source="259nfsBWnG1jqOeQEczo-8" target="259nfsBWnG1jqOeQEczo-9" edge="1">
          <mxGeometry relative="1" as="geometry" />
        </mxCell>
        <mxCell id="259nfsBWnG1jqOeQEczo-8" value="&lt;div&gt;ZIP&lt;/div&gt;" style="whiteSpace=wrap;html=1;aspect=fixed;" parent="1" vertex="1">
          <mxGeometry x="80" y="-10" width="80" height="80" as="geometry" />
        </mxCell>
        <mxCell id="259nfsBWnG1jqOeQEczo-11" style="edgeStyle=orthogonalEdgeStyle;rounded=0;orthogonalLoop=1;jettySize=auto;html=1;entryX=0.5;entryY=0;entryDx=0;entryDy=0;" parent="1" source="259nfsBWnG1jqOeQEczo-9" target="259nfsBWnG1jqOeQEczo-3" edge="1">
          <mxGeometry relative="1" as="geometry" />
        </mxCell>
        <mxCell id="259nfsBWnG1jqOeQEczo-12" style="edgeStyle=orthogonalEdgeStyle;rounded=0;orthogonalLoop=1;jettySize=auto;html=1;entryX=0.5;entryY=0;entryDx=0;entryDy=0;" parent="1" source="259nfsBWnG1jqOeQEczo-9" target="259nfsBWnG1jqOeQEczo-4" edge="1">
          <mxGeometry relative="1" as="geometry" />
        </mxCell>
        <mxCell id="259nfsBWnG1jqOeQEczo-9" value="TAR Engine" style="whiteSpace=wrap;html=1;aspect=fixed;" parent="1" vertex="1">
          <mxGeometry x="80" y="100" width="80" height="80" as="geometry" />
        </mxCell>
        <mxCell id="259nfsBWnG1jqOeQEczo-14" value="Ressource" style="swimlane;" parent="1" vertex="1">
          <mxGeometry x="-60" y="-60" width="410" height="590" as="geometry" />
        </mxCell>
        <mxCell id="259nfsBWnG1jqOeQEczo-16" value="Network" style="swimlane;" parent="1" vertex="1">
          <mxGeometry x="380" y="210" width="260" height="540" as="geometry" />
        </mxCell>
        <mxCell id="259nfsBWnG1jqOeQEczo-18" value="Scheduled Line" style="whiteSpace=wrap;html=1;aspect=fixed;" parent="259nfsBWnG1jqOeQEczo-16" vertex="1">
          <mxGeometry x="60" y="160" width="80" height="80" as="geometry" />
        </mxCell>
        <mxCell id="Zmakk4ub2AOIL455cDHX-8" style="edgeStyle=orthogonalEdgeStyle;rounded=0;orthogonalLoop=1;jettySize=auto;html=1;entryX=0.5;entryY=0;entryDx=0;entryDy=0;" edge="1" parent="259nfsBWnG1jqOeQEczo-16" source="259nfsBWnG1jqOeQEczo-17" target="Zmakk4ub2AOIL455cDHX-7">
          <mxGeometry relative="1" as="geometry">
            <mxPoint x="190" y="230" as="targetPoint" />
            <Array as="points">
              <mxPoint x="180" y="90" />
            </Array>
          </mxGeometry>
        </mxCell>
        <mxCell id="259nfsBWnG1jqOeQEczo-17" value="Station" style="whiteSpace=wrap;html=1;aspect=fixed;" parent="259nfsBWnG1jqOeQEczo-16" vertex="1">
          <mxGeometry x="60" y="50" width="80" height="80" as="geometry" />
        </mxCell>
        <mxCell id="Zmakk4ub2AOIL455cDHX-10" style="edgeStyle=orthogonalEdgeStyle;rounded=0;orthogonalLoop=1;jettySize=auto;html=1;entryX=0;entryY=0.75;entryDx=0;entryDy=0;" edge="1" parent="259nfsBWnG1jqOeQEczo-16" source="Zmakk4ub2AOIL455cDHX-4" target="259nfsBWnG1jqOeQEczo-18">
          <mxGeometry relative="1" as="geometry">
            <Array as="points">
              <mxPoint x="40" y="220" />
            </Array>
          </mxGeometry>
        </mxCell>
        <mxCell id="Zmakk4ub2AOIL455cDHX-4" value="&lt;div&gt;Schedule&lt;/div&gt;" style="whiteSpace=wrap;html=1;aspect=fixed;" vertex="1" parent="259nfsBWnG1jqOeQEczo-16">
          <mxGeometry x="20" y="330" width="80" height="80" as="geometry" />
        </mxCell>
        <mxCell id="Zmakk4ub2AOIL455cDHX-6" style="edgeStyle=orthogonalEdgeStyle;rounded=0;orthogonalLoop=1;jettySize=auto;html=1;entryX=0.5;entryY=1;entryDx=0;entryDy=0;" edge="1" parent="259nfsBWnG1jqOeQEczo-16" source="Zmakk4ub2AOIL455cDHX-5" target="Zmakk4ub2AOIL455cDHX-4">
          <mxGeometry relative="1" as="geometry" />
        </mxCell>
        <mxCell id="Zmakk4ub2AOIL455cDHX-5" value="Timetable" style="whiteSpace=wrap;html=1;aspect=fixed;" vertex="1" parent="259nfsBWnG1jqOeQEczo-16">
          <mxGeometry x="20" y="445" width="80" height="80" as="geometry" />
        </mxCell>
        <mxCell id="Zmakk4ub2AOIL455cDHX-11" style="edgeStyle=orthogonalEdgeStyle;rounded=0;orthogonalLoop=1;jettySize=auto;html=1;entryX=0.5;entryY=1;entryDx=0;entryDy=0;" edge="1" parent="259nfsBWnG1jqOeQEczo-16" source="Zmakk4ub2AOIL455cDHX-7" target="259nfsBWnG1jqOeQEczo-18">
          <mxGeometry relative="1" as="geometry">
            <Array as="points">
              <mxPoint x="100" y="310" />
            </Array>
          </mxGeometry>
        </mxCell>
        <mxCell id="Zmakk4ub2AOIL455cDHX-7" value="Line" style="whiteSpace=wrap;html=1;aspect=fixed;" vertex="1" parent="259nfsBWnG1jqOeQEczo-16">
          <mxGeometry x="140" y="270" width="80" height="80" as="geometry" />
        </mxCell>
        <mxCell id="259nfsBWnG1jqOeQEczo-23" value="Context" style="swimlane;" parent="1" vertex="1">
          <mxGeometry x="680" y="270" width="470" height="420" as="geometry" />
        </mxCell>
        <mxCell id="259nfsBWnG1jqOeQEczo-24" value="Scheduled Network" style="whiteSpace=wrap;html=1;aspect=fixed;" parent="259nfsBWnG1jqOeQEczo-23" vertex="1">
          <mxGeometry x="30" y="50" width="80" height="80" as="geometry" />
        </mxCell>
        <mxCell id="259nfsBWnG1jqOeQEczo-31" value="Network_Reach" style="whiteSpace=wrap;html=1;aspect=fixed;" parent="259nfsBWnG1jqOeQEczo-23" vertex="1">
          <mxGeometry x="157" y="47.5" width="85" height="85" as="geometry" />
        </mxCell>
        <mxCell id="259nfsBWnG1jqOeQEczo-44" value="Appolonus" style="whiteSpace=wrap;html=1;aspect=fixed;" parent="259nfsBWnG1jqOeQEczo-23" vertex="1">
          <mxGeometry x="320" y="50" width="85" height="85" as="geometry" />
        </mxCell>
        <mxCell id="Zmakk4ub2AOIL455cDHX-15" style="edgeStyle=orthogonalEdgeStyle;rounded=0;orthogonalLoop=1;jettySize=auto;html=1;entryX=0;entryY=0.5;entryDx=0;entryDy=0;" edge="1" parent="259nfsBWnG1jqOeQEczo-23" source="259nfsBWnG1jqOeQEczo-34" target="259nfsBWnG1jqOeQEczo-44">
          <mxGeometry relative="1" as="geometry">
            <Array as="points">
              <mxPoint x="215" y="210" />
              <mxPoint x="215" y="110" />
              <mxPoint x="320" y="110" />
            </Array>
          </mxGeometry>
        </mxCell>
        <mxCell id="259nfsBWnG1jqOeQEczo-34" value="Station" style="whiteSpace=wrap;html=1;aspect=fixed;" parent="259nfsBWnG1jqOeQEczo-23" vertex="1">
          <mxGeometry x="30" y="170" width="80" height="80" as="geometry" />
        </mxCell>
        <mxCell id="259nfsBWnG1jqOeQEczo-32" style="edgeStyle=orthogonalEdgeStyle;rounded=0;orthogonalLoop=1;jettySize=auto;html=1;entryX=0;entryY=0.5;entryDx=0;entryDy=0;" parent="259nfsBWnG1jqOeQEczo-23" source="259nfsBWnG1jqOeQEczo-24" edge="1" target="259nfsBWnG1jqOeQEczo-31">
          <mxGeometry relative="1" as="geometry">
            <mxPoint x="150" y="90" as="targetPoint" />
          </mxGeometry>
        </mxCell>
        <mxCell id="Zmakk4ub2AOIL455cDHX-16" style="edgeStyle=orthogonalEdgeStyle;rounded=0;orthogonalLoop=1;jettySize=auto;html=1;exitX=0;exitY=0.5;exitDx=0;exitDy=0;entryX=0;entryY=0.75;entryDx=0;entryDy=0;" edge="1" parent="259nfsBWnG1jqOeQEczo-23" source="259nfsBWnG1jqOeQEczo-44" target="259nfsBWnG1jqOeQEczo-44">
          <mxGeometry relative="1" as="geometry" />
        </mxCell>
        <mxCell id="259nfsBWnG1jqOeQEczo-25" style="edgeStyle=orthogonalEdgeStyle;rounded=0;orthogonalLoop=1;jettySize=auto;html=1;" parent="1" source="259nfsBWnG1jqOeQEczo-17" target="259nfsBWnG1jqOeQEczo-24" edge="1">
          <mxGeometry relative="1" as="geometry">
            <Array as="points">
              <mxPoint x="740" y="250" />
            </Array>
          </mxGeometry>
        </mxCell>
        <mxCell id="259nfsBWnG1jqOeQEczo-26" style="edgeStyle=orthogonalEdgeStyle;rounded=0;orthogonalLoop=1;jettySize=auto;html=1;entryX=0;entryY=0.5;entryDx=0;entryDy=0;" parent="1" source="259nfsBWnG1jqOeQEczo-18" target="259nfsBWnG1jqOeQEczo-24" edge="1">
          <mxGeometry relative="1" as="geometry" />
        </mxCell>
        <mxCell id="259nfsBWnG1jqOeQEczo-27" value="Reach Algorithm" style="swimlane;" parent="1" vertex="1">
          <mxGeometry x="670" y="-100" width="470" height="310" as="geometry" />
        </mxCell>
        <mxCell id="259nfsBWnG1jqOeQEczo-28" value="Only walk" style="whiteSpace=wrap;html=1;aspect=fixed;" parent="259nfsBWnG1jqOeQEczo-27" vertex="1">
          <mxGeometry x="20" y="40" width="80" height="80" as="geometry" />
        </mxCell>
        <mxCell id="259nfsBWnG1jqOeQEczo-29" value="unoptimized" style="whiteSpace=wrap;html=1;aspect=fixed;" parent="259nfsBWnG1jqOeQEczo-27" vertex="1">
          <mxGeometry x="130" y="40" width="80" height="80" as="geometry" />
        </mxCell>
        <mxCell id="259nfsBWnG1jqOeQEczo-30" value="Optimized" style="whiteSpace=wrap;html=1;aspect=fixed;" parent="259nfsBWnG1jqOeQEczo-27" vertex="1">
          <mxGeometry x="240" y="40" width="80" height="80" as="geometry" />
        </mxCell>
        <mxCell id="259nfsBWnG1jqOeQEczo-38" style="edgeStyle=orthogonalEdgeStyle;rounded=0;orthogonalLoop=1;jettySize=auto;html=1;exitX=0.5;exitY=0;exitDx=0;exitDy=0;entryX=0.5;entryY=1;entryDx=0;entryDy=0;" parent="259nfsBWnG1jqOeQEczo-27" target="259nfsBWnG1jqOeQEczo-28" edge="1">
          <mxGeometry relative="1" as="geometry">
            <mxPoint x="70" y="220" as="sourcePoint" />
            <mxPoint x="170" y="-200" as="targetPoint" />
            <Array as="points">
              <mxPoint x="150" y="220" />
              <mxPoint x="150" y="221" />
              <mxPoint x="60" y="221" />
            </Array>
          </mxGeometry>
        </mxCell>
        <mxCell id="259nfsBWnG1jqOeQEczo-35" value="" style="endArrow=classic;html=1;rounded=0;entryX=0;entryY=0.5;entryDx=0;entryDy=0;exitX=1;exitY=0.75;exitDx=0;exitDy=0;dashed=1;" parent="1" source="259nfsBWnG1jqOeQEczo-17" target="259nfsBWnG1jqOeQEczo-34" edge="1">
          <mxGeometry width="50" height="50" relative="1" as="geometry">
            <mxPoint x="560" y="400" as="sourcePoint" />
            <mxPoint x="610" y="350" as="targetPoint" />
          </mxGeometry>
        </mxCell>
        <mxCell id="259nfsBWnG1jqOeQEczo-40" style="edgeStyle=orthogonalEdgeStyle;rounded=0;orthogonalLoop=1;jettySize=auto;html=1;exitX=0.25;exitY=1;exitDx=0;exitDy=0;" parent="1" source="259nfsBWnG1jqOeQEczo-28" target="259nfsBWnG1jqOeQEczo-31" edge="1">
          <mxGeometry relative="1" as="geometry">
            <Array as="points">
              <mxPoint x="710" y="90" />
              <mxPoint x="869" y="90" />
            </Array>
          </mxGeometry>
        </mxCell>
        <mxCell id="259nfsBWnG1jqOeQEczo-41" style="edgeStyle=orthogonalEdgeStyle;rounded=0;orthogonalLoop=1;jettySize=auto;html=1;exitX=0.25;exitY=1;exitDx=0;exitDy=0;entryX=0.5;entryY=0;entryDx=0;entryDy=0;" parent="1" source="259nfsBWnG1jqOeQEczo-29" target="259nfsBWnG1jqOeQEczo-31" edge="1">
          <mxGeometry relative="1" as="geometry">
            <Array as="points">
              <mxPoint x="820" y="90" />
              <mxPoint x="869" y="90" />
            </Array>
          </mxGeometry>
        </mxCell>
        <mxCell id="259nfsBWnG1jqOeQEczo-42" style="edgeStyle=orthogonalEdgeStyle;rounded=0;orthogonalLoop=1;jettySize=auto;html=1;" parent="1" source="259nfsBWnG1jqOeQEczo-30" target="259nfsBWnG1jqOeQEczo-31" edge="1">
          <mxGeometry relative="1" as="geometry">
            <Array as="points">
              <mxPoint x="970" y="90" />
              <mxPoint x="869" y="90" />
            </Array>
          </mxGeometry>
        </mxCell>
        <mxCell id="259nfsBWnG1jqOeQEczo-45" value="Conic" style="swimlane;" parent="1" vertex="1">
          <mxGeometry x="1170" y="-100" width="390" height="310" as="geometry" />
        </mxCell>
        <mxCell id="259nfsBWnG1jqOeQEczo-46" value="Cone" style="whiteSpace=wrap;html=1;aspect=fixed;" parent="259nfsBWnG1jqOeQEczo-45" vertex="1">
          <mxGeometry x="20" y="40" width="80" height="80" as="geometry" />
        </mxCell>
        <mxCell id="259nfsBWnG1jqOeQEczo-47" value="Colider" style="whiteSpace=wrap;html=1;aspect=fixed;" parent="259nfsBWnG1jqOeQEczo-45" vertex="1">
          <mxGeometry x="120" y="40" width="80" height="80" as="geometry" />
        </mxCell>
        <mxCell id="259nfsBWnG1jqOeQEczo-51" value="Endpoint" style="whiteSpace=wrap;html=1;aspect=fixed;" parent="259nfsBWnG1jqOeQEczo-45" vertex="1">
          <mxGeometry x="210" y="40" width="80" height="80" as="geometry" />
        </mxCell>
        <mxCell id="259nfsBWnG1jqOeQEczo-48" value="Transformation" style="swimlane;" parent="1" vertex="1">
          <mxGeometry x="1160" y="-320" width="200" height="200" as="geometry" />
        </mxCell>
        <mxCell id="259nfsBWnG1jqOeQEczo-49" value="Rotator" style="whiteSpace=wrap;html=1;aspect=fixed;" parent="259nfsBWnG1jqOeQEczo-48" vertex="1">
          <mxGeometry x="10" y="40" width="80" height="80" as="geometry" />
        </mxCell>
        <mxCell id="259nfsBWnG1jqOeQEczo-50" value="Translator" style="whiteSpace=wrap;html=1;aspect=fixed;" parent="259nfsBWnG1jqOeQEczo-48" vertex="1">
          <mxGeometry x="100" y="40" width="80" height="80" as="geometry" />
        </mxCell>
        <mxCell id="259nfsBWnG1jqOeQEczo-53" value="Appolonus Algorithm" style="swimlane;" parent="1" vertex="1">
          <mxGeometry x="1240" y="270" width="430" height="420" as="geometry" />
        </mxCell>
        <mxCell id="259nfsBWnG1jqOeQEczo-39" style="edgeStyle=orthogonalEdgeStyle;rounded=0;orthogonalLoop=1;jettySize=auto;html=1;exitX=1;exitY=0.5;exitDx=0;exitDy=0;entryX=0.5;entryY=1;entryDx=0;entryDy=0;" parent="1" source="259nfsBWnG1jqOeQEczo-34" target="259nfsBWnG1jqOeQEczo-30" edge="1">
          <mxGeometry relative="1" as="geometry">
            <Array as="points">
              <mxPoint x="810" y="480" />
              <mxPoint x="810" y="120" />
              <mxPoint x="950" y="120" />
            </Array>
          </mxGeometry>
        </mxCell>
        <mxCell id="Zmakk4ub2AOIL455cDHX-3" value="" style="endArrow=classic;html=1;rounded=0;entryX=0.5;entryY=1;entryDx=0;entryDy=0;" edge="1" parent="1" target="259nfsBWnG1jqOeQEczo-29">
          <mxGeometry width="50" height="50" relative="1" as="geometry">
            <mxPoint x="840" y="120" as="sourcePoint" />
            <mxPoint x="950" y="170" as="targetPoint" />
          </mxGeometry>
        </mxCell>
      </root>
    </mxGraphModel>
  </diagram>
</mxfile>
